HIERARCHY
ROOT Hips
{
	OFFSET 0.000000 71.427986 0.000000
	CHANNELS 6 Xposition Yposition Zposition Xrotation Yrotation Zrotation
	JOINT Pelvis
	{
		OFFSET 0.000000 0.000000 0.000000
		CHANNELS 3 Xrotation Yrotation Zrotation
		JOINT LeftUpLeg
		{
			OFFSET 6.797100 -2.508499 -1.318700
			CHANNELS 3 Xrotation Yrotation Zrotation
			JOINT LeftLeg
			{
				OFFSET 0.069008 -29.241863 0.690200
				CHANNELS 3 Xrotation Yrotation Zrotation
				JOINT LeftFoot
				{
					OFFSET -0.069008 -29.568123 -0.266800
					CHANNELS 3 Xrotation Yrotation Zrotation
					JOINT LeftToeBase
					{
						OFFSET 3.145500 -8.631000 16.059900
						CHANNELS 3 Xrotation Yrotation Zrotation
						End Site
						{
							OFFSET 0.000000 18.501587 0.000000
						}
					}
				}
			}
			JOINT Left_ShortSleeve
			{
				OFFSET 0.265923 -10.480953 1.153800
				CHANNELS 3 Xrotation Yrotation Zrotation
				End Site
				{
					OFFSET 1.725763 19.823879 0.000000
				}
			}
		}
		JOINT RightUpLeg
		{
			OFFSET -6.797100 -2.508499 -1.318700
			CHANNELS 3 Xrotation Yrotation Zrotation
			JOINT RightLeg
			{
				OFFSET -0.082453 -29.241932 0.688000
				CHANNELS 3 Xrotation Yrotation Zrotation
				JOINT RightFoot
				{
					OFFSET 0.082453 -29.568058 -0.264600
					CHANNELS 3 Xrotation Yrotation Zrotation
					JOINT RightToeBase
					{
						OFFSET -3.115300 -8.682800 16.113400
						CHANNELS 3 Xrotation Yrotation Zrotation
						End Site
						{
							OFFSET 0.000000 18.567114 0.000000
						}
					}
				}
			}
			JOINT Right_ShortSleeve
			{
				OFFSET -0.265923 -10.480953 1.153800
				CHANNELS 3 Xrotation Yrotation Zrotation
				End Site
				{
					OFFSET -1.725766 19.823910 0.000000
				}
			}
		}
	}
	JOINT Spine
	{
		OFFSET 0.000000 13.368103 0.470500
		CHANNELS 3 Xrotation Yrotation Zrotation
		JOINT Spine1
		{
			OFFSET 0.147000 13.837402 0.538800
			CHANNELS 3 Xrotation Yrotation Zrotation
			JOINT Spine2
			{
				OFFSET 0.168000 16.242897 -1.435500
				CHANNELS 3 Xrotation Yrotation Zrotation
				JOINT Neck
				{
					OFFSET 0.217200 18.631500 -1.679100
					CHANNELS 3 Xrotation Yrotation Zrotation
					JOINT Head
					{
						OFFSET 0.000000 6.599396 1.385900
						CHANNELS 3 Xrotation Yrotation Zrotation
						JOINT Hat
						{
							OFFSET -0.532200 27.220596 -10.096100
							CHANNELS 3 Xrotation Yrotation Zrotation
							End Site
							{
								OFFSET 0.000000 22.029861 0.000000
							}
						}
						JOINT HairD
						{
							OFFSET -10.777400 17.437393 -1.325900
							CHANNELS 3 Xrotation Yrotation Zrotation
							JOINT HairD1
							{
								OFFSET -3.290299 -11.051193 1.062200
								CHANNELS 3 Xrotation Yrotation Zrotation
								End Site
								{
									OFFSET 0.000000 11.579437 0.000000
								}
							}
						}
						JOINT HairB
						{
							OFFSET -10.777400 17.437393 1.467900
							CHANNELS 3 Xrotation Yrotation Zrotation
							JOINT HairB1
							{
								OFFSET -1.561200 -12.956299 3.590200
								CHANNELS 3 Xrotation Yrotation Zrotation
								End Site
								{
									OFFSET 0.000000 13.534866 0.000000
								}
							}
						}
						JOINT HairA
						{
							OFFSET 9.713100 17.437393 1.467900
							CHANNELS 3 Xrotation Yrotation Zrotation
							JOINT HairA1
							{
								OFFSET 1.561200 -12.956299 3.590200
								CHANNELS 3 Xrotation Yrotation Zrotation
								End Site
								{
									OFFSET 0.000000 13.534866 0.000000
								}
							}
						}
						JOINT HairC
						{
							OFFSET 9.713100 17.437393 -1.325900
							CHANNELS 3 Xrotation Yrotation Zrotation
							JOINT HairC1
							{
								OFFSET 3.290300 -11.051193 1.062200
								CHANNELS 3 Xrotation Yrotation Zrotation
								End Site
								{
									OFFSET 0.000000 11.579437 0.000000
								}
							}
						}
					}
				}
				JOINT LeftShoulder
				{
					OFFSET 5.101800 15.108002 -2.763700
					CHANNELS 3 Xrotation Yrotation Zrotation
					JOINT LeftArm
					{
						OFFSET 9.825497 2.506317 -1.597400
						CHANNELS 3 Xrotation Yrotation Zrotation
						JOINT LeftForeArm
						{
							OFFSET 21.966244 0.000000 0.000000
							CHANNELS 3 Xrotation Yrotation Zrotation
							JOINT LeftHand
							{
								OFFSET 33.879036 0.000000 0.000000
								CHANNELS 3 Xrotation Yrotation Zrotation
								JOINT LeftHandThumb1
								{
									OFFSET 6.715286 -2.359680 3.363841
									CHANNELS 3 Xrotation Yrotation Zrotation
									JOINT LeftHandThumb2
									{
										OFFSET 2.507072 -1.447464 1.447461
										CHANNELS 3 Xrotation Yrotation Zrotation
										JOINT LeftHandThumb3
										{
											OFFSET 2.898338 -1.673355 1.673357
											CHANNELS 3 Xrotation Yrotation Zrotation
											End Site
											{
												OFFSET -0.295959 3.727692 -0.131651
											}
										}
									}
								}
								JOINT LeftHandIndex1
								{
									OFFSET 14.190811 -0.254547 3.840278
									CHANNELS 3 Xrotation Yrotation Zrotation
									JOINT LeftHandIndex2
									{
										OFFSET 3.551727 0.000000 -0.000000
										CHANNELS 3 Xrotation Yrotation Zrotation
										JOINT LeftHandIndex3
										{
											OFFSET 2.894196 0.000000 0.000000
											CHANNELS 3 Xrotation Yrotation Zrotation
											End Site
											{
												OFFSET -1.000603 2.690872 0.366626
											}
										}
									}
								}
								JOINT LeftHandMiddle1
								{
									OFFSET 13.776489 0.000000 0.000000
									CHANNELS 3 Xrotation Yrotation Zrotation
									JOINT LeftHandMiddle2
									{
										OFFSET 3.438232 0.000000 0.000000
										CHANNELS 3 Xrotation Yrotation Zrotation
										JOINT LeftHandMiddle3
										{
											OFFSET 3.691551 0.000000 0.000000
											CHANNELS 3 Xrotation Yrotation Zrotation
											End Site
											{
												OFFSET -1.082298 3.499527 0.457670
											}
										}
									}
								}
								JOINT LeftHandRing1
								{
									OFFSET 13.966164 -0.268127 -3.067488
									CHANNELS 3 Xrotation Yrotation Zrotation
									JOINT LeftHandRing2
									{
										OFFSET 3.162567 0.000000 0.000000
										CHANNELS 3 Xrotation Yrotation Zrotation
										JOINT LeftHandRing3
										{
											OFFSET 3.324348 0.000000 0.000000
											CHANNELS 3 Xrotation Yrotation Zrotation
											End Site
											{
												OFFSET -0.861900 3.184998 0.405154
											}
										}
									}
								}
								JOINT LeftHandPinky1
								{
									OFFSET 13.131393 -0.168503 -5.746925
									CHANNELS 3 Xrotation Yrotation Zrotation
									JOINT LeftHandPinky2
									{
										OFFSET 2.849182 0.000000 0.000000
										CHANNELS 3 Xrotation Yrotation Zrotation
										JOINT LeftHandPinky3
										{
											OFFSET 2.805038 0.000000 0.000000
											CHANNELS 3 Xrotation Yrotation Zrotation
											End Site
											{
												OFFSET -0.882500 2.642609 0.325652
											}
										}
									}
								}
							}
							JOINT Left_Sleeve
							{
								OFFSET 6.592125 -0.646545 0.805568
								CHANNELS 3 Xrotation Yrotation Zrotation
								End Site
								{
									OFFSET -0.000179 20.275787 -0.000000
								}
							}
						}
					}
				}
				JOINT RightShoulder
				{
					OFFSET -5.731700 15.108002 -2.763700
					CHANNELS 3 Xrotation Yrotation Zrotation
					JOINT RightArm
					{
						OFFSET -9.825497 2.506317 -1.597400
						CHANNELS 3 Xrotation Yrotation Zrotation
						JOINT RightForeArm
						{
							OFFSET -21.966242 0.000000 0.000000
							CHANNELS 3 Xrotation Yrotation Zrotation
							JOINT RightHand
							{
								OFFSET -33.879032 0.000000 0.000000
								CHANNELS 3 Xrotation Yrotation Zrotation
								JOINT RightHandThumb1
								{
									OFFSET -6.715286 -2.359680 3.363841
									CHANNELS 3 Xrotation Yrotation Zrotation
									JOINT RightHandThumb2
									{
										OFFSET -2.507072 -1.447464 1.447461
										CHANNELS 3 Xrotation Yrotation Zrotation
										JOINT RightHandThumb3
										{
											OFFSET -2.898338 -1.673355 1.673357
											CHANNELS 3 Xrotation Yrotation Zrotation
											End Site
											{
												OFFSET 0.295959 3.727692 -0.131651
											}
										}
									}
								}
								JOINT RightHandIndex1
								{
									OFFSET -14.190811 -0.254547 3.840278
									CHANNELS 3 Xrotation Yrotation Zrotation
									JOINT RightHandIndex2
									{
										OFFSET -3.551727 0.000000 -0.000000
										CHANNELS 3 Xrotation Yrotation Zrotation
										JOINT RightHandIndex3
										{
											OFFSET -2.894196 0.000000 0.000000
											CHANNELS 3 Xrotation Yrotation Zrotation
											End Site
											{
												OFFSET 1.000603 2.690872 0.366626
											}
										}
									}
								}
								JOINT RightHandMiddle1
								{
									OFFSET -13.776489 0.000000 0.000000
									CHANNELS 3 Xrotation Yrotation Zrotation
									JOINT RightHandMiddle2
									{
										OFFSET -3.438232 0.000000 0.000000
										CHANNELS 3 Xrotation Yrotation Zrotation
										JOINT RightHandMiddle3
										{
											OFFSET -3.691551 0.000000 0.000000
											CHANNELS 3 Xrotation Yrotation Zrotation
											End Site
											{
												OFFSET 1.082298 3.499527 0.457670
											}
										}
									}
								}
								JOINT RightHandRing1
								{
									OFFSET -13.966164 -0.268127 -3.067488
									CHANNELS 3 Xrotation Yrotation Zrotation
									JOINT RightHandRing2
									{
										OFFSET -3.162567 0.000000 0.000000
										CHANNELS 3 Xrotation Yrotation Zrotation
										JOINT RightHandRing3
										{
											OFFSET -3.324348 0.000000 0.000000
											CHANNELS 3 Xrotation Yrotation Zrotation
											End Site
											{
												OFFSET 0.861900 3.184998 0.405154
											}
										}
									}
								}
								JOINT RightHandPinky1
								{
									OFFSET -13.131393 -0.168503 -5.746925
									CHANNELS 3 Xrotation Yrotation Zrotation
									JOINT RightHandPinky2
									{
										OFFSET -2.849182 0.000000 0.000000
										CHANNELS 3 Xrotation Yrotation Zrotation
										JOINT RightHandPinky3
										{
											OFFSET -2.805038 0.000000 0.000000
											CHANNELS 3 Xrotation Yrotation Zrotation
											End Site
											{
												OFFSET 0.882500 2.642609 0.325652
											}
										}
									}
								}
							}
							JOINT Right_Sleeve
							{
								OFFSET -6.592125 -0.646545 0.805568
								CHANNELS 3 Xrotation Yrotation Zrotation
								End Site
								{
									OFFSET 0.000179 20.275787 -0.000000
								}
							}
						}
					}
				}
				JOINT Bind_Right_JacketString
				{
					OFFSET -3.534800 11.969597 7.200700
					CHANNELS 3 Xrotation Yrotation Zrotation
					JOINT Bind_Right_JacketString1
					{
						OFFSET -0.319900 -6.102600 2.794100
						CHANNELS 3 Xrotation Yrotation Zrotation
						End Site
						{
							OFFSET 0.000000 6.719452 0.000000
						}
					}
				}
				JOINT Bind_Left_JacketString
				{
					OFFSET 2.904800 11.969597 7.200700
					CHANNELS 3 Xrotation Yrotation Zrotation
					JOINT Bind_Left_JacketString1
					{
						OFFSET 0.364800 -5.904503 3.186800
						CHANNELS 3 Xrotation Yrotation Zrotation
						End Site
						{
							OFFSET 0.000000 6.719513 0.000000
						}
					}
				}
				JOINT HairE
				{
					OFFSET 5.915200 17.612701 -11.592200
					CHANNELS 3 Xrotation Yrotation Zrotation
					JOINT HairE1
					{
						OFFSET 0.289200 -7.171898 -1.284500
						CHANNELS 3 Xrotation Yrotation Zrotation
						End Site
						{
							OFFSET 0.000000 7.291756 0.000000
						}
					}
				}
				JOINT HairF
				{
					OFFSET -0.864800 17.612701 -11.592200
					CHANNELS 3 Xrotation Yrotation Zrotation
					JOINT HairF1
					{
						OFFSET 0.000000 -14.087097 -2.127501
						CHANNELS 3 Xrotation Yrotation Zrotation
						End Site
						{
							OFFSET 0.000000 14.246841 0.000000
						}
					}
				}
				JOINT HairG
				{
					OFFSET -8.087700 17.612701 -11.592200
					CHANNELS 3 Xrotation Yrotation Zrotation
					JOINT HairG1
					{
						OFFSET -0.293600 -6.081398 -0.910100
						CHANNELS 3 Xrotation Yrotation Zrotation
						End Site
						{
							OFFSET 0.000000 6.156120 0.000000
						}
					}
				}
			}
		}
	}
	JOINT Pouch
	{
		OFFSET 0.000000 4.394501 10.847300
		CHANNELS 3 Xrotation Yrotation Zrotation
		End Site
		{
			OFFSET 0.000000 21.880577 0.000000
		}
	}
	JOINT Bag
	{
		OFFSET -13.229000 4.813004 -0.593300
		CHANNELS 3 Xrotation Yrotation Zrotation
		End Site
		{
			OFFSET 0.000000 21.880577 0.000000
		}
	}
	JOINT OccupyGuyFacialAnim_Joint
	{
		OFFSET 1.000000 -70.206398 -1.655000
		CHANNELS 3 Xrotation Yrotation Zrotation
		End Site
		{
			OFFSET 0.000000 21.880577 0.000000
		}
	}
}
MOTION
Frames: 5
Frame Time: 0.033333
-0.954736 63.522644 0.936858 -0.213701 -45.639563 5.070434 -0.000000 0.000001 -0.000000 -43.017546 -3.515617 2.593251 106.838345 -0.805913 -6.154212 16.326184 -3.644216 0.069174 0.000001 0.000001 -0.000001 -0.000003 0.000001 -0.000000 -21.247286 -5.541815 -1.576391 60.267977 4.204236 -1.277174 -36.193213 1.596349 -7.501020 0.000000 0.000000 -0.000000 -0.000000 0.000001 -0.000000 16.410769 1.460385 -1.116298 5.913859 1.074063 -1.755517 5.981878 0.823124 -1.644726 -2.834358 3.818175 -1.264226 -3.565851 24.561219 3.703980 0.000001 0.000000 -0.000001 0.000001 0.000000 -0.000001 0.000001 0.000000 -0.000002 0.000001 0.000000 -0.000002 -0.000000 0.000000 -0.000002 0.000001 0.000000 -0.000002 -0.000000 0.000000 -0.000002 0.000001 0.000000 -0.000001 0.000001 0.000000 -0.000001 12.210457 -17.121783 1.807488 -51.975247 -10.414657 -45.903936 -87.174299 13.269072 -97.314664 -42.785012 -18.858303 9.589069 0.699118 9.503395 -2.418114 5.975198 12.647553 1.348334 -0.000001 0.000001 -0.000001 9.479713 -1.289801 -20.785565 0.709479 2.796375 -28.467103 0.000002 -0.000001 -0.000002 10.058148 -1.800637 -20.644730 1.774264 4.200444 -45.782085 0.000003 0.000000 -0.000001 1.254233 -0.073760 -17.945779 3.754096 5.463614 -68.965267 -0.000002 0.000000 0.000001 -7.938265 1.609070 -6.495704 2.210593 4.583680 -51.475256 -0.000001 -0.000005 0.000002 -0.000001 0.000001 0.000001 4.264895 16.215663 -0.573770 -5.103126 32.692461 26.750163 28.599696 127.511777 -30.714746 -22.377136 6.227683 -21.705675 13.942490 -4.273660 -5.300352 7.113268 -20.767523 -2.619488 0.000001 0.000000 -0.000000 0.357755 -5.832748 5.175867 0.094339 -0.933645 11.539863 0.000001 -0.000001 0.000000 3.764136 -12.080524 1.143760 5.714243 -4.535840 103.133527 0.000001 0.000000 -0.000002 -12.155597 -12.623938 9.228332 6.566865 -4.248398 114.232339 -0.000001 -0.000002 -0.000002 -17.635803 -10.496866 3.325400 4.993719 -4.644990 94.147990 -0.000000 -0.000000 -0.000001 0.000001 0.000000 0.000001 0.000002 -0.000004 0.000002 0.000002 -0.000002 -0.000000 0.000002 -0.000004 0.000003 0.000002 -0.000004 0.000003 0.000002 -0.000004 0.000002 0.000002 -0.000002 0.000000 0.000002 -0.000004 0.000003 0.000002 -0.000004 0.000003 0.000002 -0.000004 0.000002 0.000002 -0.000002 0.000000 -0.000000 0.000001 -0.000000 -0.000000 0.000001 -0.000000 -0.000000 0.000001 -0.000000 
-9.094229 65.400017 9.067156 1.782050 -42.367387 7.438888 -0.000000 0.000001 -0.000001 -56.226951 -0.596185 3.313902 96.306808 1.709373 -5.695702 3.666420 -1.549122 4.199632 -0.000001 0.000003 -0.000003 -0.000003 -0.000001 -0.000002 -3.963266 -7.093939 -1.618977 45.241578 2.537089 -1.318349 -36.706622 1.038828 -5.824776 -0.000001 -0.000003 0.000000 0.000000 -0.000003 -0.000000 14.813422 1.613479 -3.908976 5.008556 1.450448 -0.501171 5.039016 1.355805 -0.434963 -2.449607 3.816736 -1.127820 -1.832953 21.769845 4.826025 -0.000000 0.000000 0.000001 -0.000000 0.000000 0.000001 -0.000000 0.000000 0.000000 -0.000000 0.000000 0.000000 -0.000002 0.000000 -0.000001 -0.000000 0.000000 0.000000 -0.000002 0.000000 -0.000001 -0.000000 0.000000 0.000001 -0.000000 0.000000 0.000001 11.223133 -17.312508 1.706817 -52.899774 -14.247542 -49.594847 -89.102502 13.366157 -88.532905 -42.765723 -13.663999 7.801019 0.699115 9.503398 -2.418116 5.975197 12.647551 1.348329 0.000001 0.000001 -0.000001 9.479714 -1.289802 -20.785565 0.709480 2.796375 -28.467105 0.000001 0.000001 -0.000000 10.058148 -1.800633 -20.644727 1.774264 4.200444 -45.782085 0.000004 0.000000 0.000001 1.254235 -0.073758 -17.945782 3.754097 5.463614 -68.965267 -0.000000 -0.000001 0.000002 -7.938268 1.609070 -6.495702 2.210592 4.583679 -51.475266 0.000001 -0.000002 0.000001 -0.000001 0.000001 0.000002 4.952541 18.240975 -0.868029 -4.970243 28.345177 29.457274 28.312831 126.281551 -30.856592 -21.530872 6.109006 -21.709159 13.942488 -4.273660 -5.300354 7.113271 -20.767525 -2.619489 0.000001 0.000000 -0.000001 0.357755 -5.832745 5.175868 0.094340 -0.933644 11.539862 0.000001 0.000001 0.000004 3.764136 -12.080521 1.143759 5.714241 -4.535838 103.133527 -0.000000 0.000000 0.000001 -12.155595 -12.623940 9.228331 6.566864 -4.248401 114.232339 -0.000000 -0.000001 -0.000004 -17.635801 -10.496866 3.325399 4.993721 -4.644990 94.147990 -0.000000 0.000001 -0.000001 0.000000 0.000001 -0.000000 -0.000002 0.000000 -0.000000 -0.000001 0.000003 -0.000001 -0.000002 0.000000 -0.000001 -0.000002 0.000000 -0.000001 -0.000002 0.000000 -0.000000 -0.000001 0.000003 -0.000001 -0.000002 0.000000 -0.000001 -0.000002 0.000000 -0.000001 -0.000002 0.000000 -0.000000 -0.000001 0.000003 -0.000001 -0.000000 0.000001 -0.000001 -0.000000 0.000001 -0.000001 -0.000000 0.000001 -0.000001 
-17.070862 67.677605 17.101841 6.301798 -39.086304 10.703512 0.000000 0.000002 -0.000000 -58.656783 3.550638 1.789677 65.405529 0.112201 -5.104161 2.630061 -2.243352 -4.670523 -0.000000 -0.000000 0.000000 0.000001 -0.000001 -0.000001 7.439960 -5.076197 0.694276 32.467137 -0.118689 -1.216983 -22.983858 -3.747297 -4.105903 0.000001 -0.000000 -0.000001 0.000001 0.000002 -0.000001 10.863086 1.876292 -4.205364 6.061333 1.528629 -0.312948 6.086946 1.477991 -0.252033 -2.647200 3.412573 -0.155918 -2.822571 20.183463 4.776937 0.000001 -0.000000 0.000001 0.000001 -0.000000 0.000001 0.000001 -0.000000 0.000001 0.000001 -0.000000 0.000002 -0.000000 0.000000 -0.000002 0.000001 -0.000000 0.000002 -0.000000 0.000000 -0.000002 0.000001 -0.000000 0.000001 0.000001 -0.000000 0.000001 10.075109 -17.726718 1.617502 -55.233175 -15.803960 -50.448320 -89.984915 14.305820 -85.040425 -42.373268 -10.244524 7.813485 0.699114 9.503404 -2.418113 5.975200 12.647552 1.348335 0.000000 -0.000000 -0.000002 9.479715 -1.289796 -20.785563 0.709481 2.796373 -28.467101 -0.000002 0.000001 0.000002 10.058145 -1.800632 -20.644732 1.774264 4.200440 -45.782085 0.000001 -0.000003 0.000000 1.254231 -0.073752 -17.945777 3.754092 5.463618 -68.965267 0.000001 0.000003 -0.000001 -7.938270 1.609074 -6.495702 2.210594 4.583680 -51.475263 0.000000 -0.000004 0.000002 0.000001 0.000000 0.000001 5.624381 20.158323 -1.200325 -7.847383 25.860633 32.011587 23.185408 126.163225 -26.243182 -21.162940 3.234628 -23.393695 13.942489 -4.273663 -5.300352 7.113270 -20.767523 -2.619486 0.000000 0.000000 -0.000000 0.357754 -5.832747 5.175867 0.094340 -0.933647 11.539863 0.000000 0.000000 0.000000 3.764136 -12.080524 1.143759 5.714242 -4.535839 103.133527 0.000001 -0.000001 0.000001 -12.155597 -12.623937 9.228329 6.566866 -4.248399 114.232346 -0.000002 0.000000 -0.000000 -17.635806 -10.496870 3.325401 4.993722 -4.644989 94.147997 -0.000000 -0.000001 -0.000001 0.000001 0.000003 0.000003 0.000001 -0.000001 0.000001 0.000001 -0.000001 0.000000 0.000001 -0.000001 0.000001 0.000001 -0.000001 0.000001 0.000001 -0.000001 0.000001 0.000001 -0.000001 0.000000 0.000001 -0.000001 0.000001 0.000001 -0.000001 0.000001 0.000001 -0.000001 0.000001 0.000001 -0.000001 0.000000 0.000000 0.000002 -0.000000 0.000000 0.000002 -0.000000 0.000000 0.000002 -0.000000 
-24.713642 68.554474 24.917271 10.165950 -37.420189 12.612609 -0.000000 0.000001 -0.000000 -51.981469 5.302372 -1.453713 40.763576 2.171176 -3.322119 -0.822491 -1.511222 -9.730652 -0.000000 -0.000002 -0.000001 -0.000000 -0.000000 -0.000000 -0.544730 -13.336137 -3.307695 45.321662 10.036554 -1.787444 11.170593 -2.306902 -2.710282 0.000003 0.000001 0.000001 -0.000001 -0.000002 -0.000001 7.115321 1.818380 -3.690656 7.933737 1.382989 -0.392538 7.966759 1.274083 -0.332804 -2.368188 3.172479 0.894169 -5.942235 20.536931 4.169069 0.000001 0.000000 -0.000001 0.000001 0.000000 -0.000001 0.000001 0.000000 -0.000001 0.000001 0.000000 -0.000000 0.000001 0.000000 -0.000000 0.000001 0.000000 -0.000000 0.000001 0.000000 -0.000000 0.000001 0.000000 -0.000001 0.000001 0.000000 -0.000001 9.119815 -18.375859 1.583084 -55.992241 -14.793447 -48.937295 -89.603271 15.023870 -86.773394 -41.782589 -9.630027 8.294479 0.699117 9.503401 -2.418114 5.975200 12.647550 1.348331 -0.000001 0.000001 -0.000001 9.479713 -1.289795 -20.785567 0.709481 2.796371 -28.467101 0.000004 -0.000001 0.000001 10.058145 -1.800634 -20.644732 1.774264 4.200446 -45.782085 0.000003 0.000002 -0.000003 1.254233 -0.073758 -17.945781 3.754094 5.463612 -68.965267 0.000001 0.000003 -0.000002 -7.938266 1.609069 -6.495702 2.210591 4.583685 -51.475260 0.000000 -0.000005 0.000004 0.000002 -0.000001 -0.000001 6.076806 21.490161 -1.456951 -10.394326 25.414434 33.522504 17.567014 126.000297 -21.310093 -21.172280 1.606425 -23.903837 13.942489 -4.273660 -5.300353 7.113270 -20.767525 -2.619487 0.000000 0.000000 -0.000000 0.357755 -5.832747 5.175867 0.094339 -0.933646 11.539862 0.000001 0.000002 0.000001 3.764136 -12.080523 1.143758 5.714241 -4.535839 103.133527 0.000000 -0.000001 0.000003 -12.155595 -12.623939 9.228329 6.566867 -4.248399 114.232339 -0.000002 -0.000000 -0.000002 -17.635805 -10.496867 3.325399 4.993721 -4.644991 94.147997 -0.000000 0.000001 0.000001 -0.000001 -0.000002 -0.000001 -0.000002 0.000002 0.000000 -0.000002 0.000001 -0.000001 -0.000002 0.000002 -0.000001 -0.000002 0.000002 -0.000001 -0.000002 0.000002 0.000000 -0.000002 0.000001 -0.000001 -0.000002 0.000002 -0.000001 -0.000002 0.000002 -0.000001 -0.000002 0.000002 0.000000 -0.000002 0.000001 -0.000001 -0.000000 0.000001 -0.000000 -0.000000 0.000001 -0.000000 -0.000000 0.000001 -0.000000 
-32.369366 68.852623 32.772499 9.476008 -38.276954 10.079472 -0.000000 0.000001 -0.000000 -41.568501 5.296983 -3.609144 24.214358 4.315390 0.116608 -11.630788 -1.095164 -8.074931 -0.000002 0.000003 0.000000 -0.000002 -0.000002 -0.000003 6.283015 -12.624963 -2.019734 41.152825 7.782927 -1.342803 24.338653 -2.031768 -0.347422 0.000000 0.000000 -0.000000 0.000001 0.000000 -0.000000 7.811619 1.441043 -4.325494 8.396183 1.132772 0.598045 8.415305 1.026921 0.586914 -2.673688 3.287106 1.183803 -7.204157 22.323577 4.375993 0.000001 -0.000000 0.000002 0.000001 -0.000000 0.000002 0.000001 -0.000000 0.000001 0.000001 -0.000000 0.000002 0.000001 -0.000000 0.000002 0.000001 -0.000000 0.000002 0.000001 -0.000000 0.000002 0.000001 -0.000000 0.000002 0.000001 -0.000000 0.000002 8.393328 -19.399446 1.628617 -54.583651 -12.210736 -47.437426 -88.897275 13.647281 -89.352760 -41.484137 -10.987964 8.755619 0.699118 9.503403 -2.418113 5.975198 12.647547 1.348331 0.000002 -0.000000 -0.000001 9.479715 -1.289796 -20.785569 0.709480 2.796375 -28.467103 -0.000001 0.000002 0.000000 10.058148 -1.800631 -20.644733 1.774267 4.200443 -45.782085 -0.000002 -0.000002 -0.000001 1.254234 -0.073758 -17.945781 3.754097 5.463615 -68.965267 0.000004 0.000002 0.000000 -7.938267 1.609073 -6.495699 2.210588 4.583678 -51.475260 0.000002 -0.000004 0.000002 0.000002 0.000001 0.000000 6.411800 22.589369 -1.676721 -11.131776 24.637652 34.462498 17.964846 124.797228 -21.863792 -21.067749 3.709425 -20.977234 13.942489 -4.273662 -5.300354 7.113274 -20.767528 -2.619486 0.000001 0.000000 -0.000000 0.357755 -5.832746 5.175868 0.094338 -0.933646 11.539861 -0.000001 -0.000000 0.000000 3.764136 -12.080525 1.143759 5.714241 -4.535838 103.133527 0.000001 -0.000000 0.000001 -12.155598 -12.623937 9.228327 6.566867 -4.248399 114.232339 0.000001 -0.000001 0.000002 -17.635806 -10.496870 3.325398 4.993722 -4.644990 94.147990 0.000001 0.000001 -0.000003 0.000001 0.000002 0.000003 -0.000000 0.000000 -0.000002 -0.000001 0.000000 -0.000002 -0.000000 0.000000 -0.000001 -0.000000 0.000000 -0.000001 -0.000000 0.000000 -0.000002 -0.000001 0.000000 -0.000001 -0.000000 0.000000 -0.000001 -0.000000 0.000000 -0.000001 -0.000000 0.000000 -0.000002 -0.000001 0.000000 -0.000001 -0.000000 0.000001 -0.000000 -0.000000 0.000001 -0.000000 -0.000000 0.000001 -0.000000 
